<svg width="121" height="43" viewBox="0 0 121 43" fill="none" xmlns="http://www.w3.org/2000/svg">
<path d="M9.376 28.192C6.53867 28.192 4.26667 27.6587 2.56 26.592C0.853336 25.504 2.6226e-06 23.8507 2.6226e-06 21.632C2.6226e-06 20.4587 0.202669 19.5627 0.608003 18.944C1.01334 18.3253 1.61067 18.016 2.4 18.016C2.976 18.016 3.44534 18.1653 3.808 18.464C4.17067 18.7627 4.352 19.1467 4.352 19.616C4.352 20.0427 4.32 20.416 4.256 20.736C4.256 20.8213 4.23467 20.9707 4.192 21.184C4.17067 21.3973 4.16 21.6213 4.16 21.856C4.16 22.816 4.64 23.5307 5.6 24C6.58134 24.4693 7.94667 24.704 9.696 24.704C11.5093 24.704 12.928 24.384 13.952 23.744C14.976 23.0827 15.488 22.1653 15.488 20.992C15.488 20.2667 15.2533 19.648 14.784 19.136C14.3147 18.6027 13.728 18.1653 13.024 17.824C12.32 17.4613 11.328 17.024 10.048 16.512C8.40534 15.872 7.06134 15.264 6.016 14.688C4.992 14.112 4.10667 13.3333 3.36 12.352C2.63467 11.3493 2.272 10.112 2.272 8.64C2.272 7.104 2.67734 5.73867 3.488 4.544C4.32 3.34934 5.504 2.42134 7.04 1.76C8.59734 1.09867 10.4213 0.768003 12.512 0.768003C14.0693 0.768003 15.4987 1.00267 16.8 1.472C18.1013 1.92 19.136 2.61334 19.904 3.552C20.6933 4.49067 21.088 5.64267 21.088 7.008C21.088 8.352 20.8853 9.36534 20.48 10.048C20.0747 10.7307 19.4773 11.072 18.688 11.072C18.1333 11.072 17.664 10.9013 17.28 10.56C16.9173 10.2187 16.736 9.81334 16.736 9.344C16.736 8.93867 16.768 8.56534 16.832 8.224C16.896 7.584 16.928 7.17867 16.928 7.008C16.928 6.112 16.4907 5.42934 15.616 4.96C14.7413 4.49067 13.6533 4.256 12.352 4.256C10.5173 4.256 9.10934 4.59734 8.128 5.28C7.168 5.94134 6.688 6.88 6.688 8.096C6.688 8.90667 6.93334 9.6 7.424 10.176C7.936 10.752 8.56534 11.232 9.312 11.616C10.0587 12 11.104 12.4587 12.448 12.992C14.0693 13.6533 15.3707 14.2507 16.352 14.784C17.3333 15.3173 18.1653 16.0427 18.848 16.96C19.552 17.8773 19.904 19.008 19.904 20.352C19.904 22.8693 18.944 24.8107 17.024 26.176C15.1253 27.52 12.576 28.192 9.376 28.192ZM36.595 20.8C36.8723 20.8 37.0857 20.928 37.235 21.184C37.4057 21.44 37.491 21.792 37.491 22.24C37.491 23.0933 37.2883 23.7547 36.883 24.224C35.9657 25.3547 34.963 26.2827 33.875 27.008C32.787 27.7333 31.539 28.096 30.131 28.096C25.779 28.096 23.603 25.0347 23.603 18.912C23.603 17.9733 23.635 17.024 23.699 16.064H22.451C21.811 16.064 21.3737 15.9467 21.139 15.712C20.9257 15.4773 20.819 15.104 20.819 14.592C20.819 13.3973 21.299 12.8 22.259 12.8H24.083C24.4457 10.4533 25.0003 8.30934 25.747 6.368C26.4937 4.42667 27.3897 2.88 28.435 1.728C29.5017 0.576003 30.643 3.8147e-06 31.859 3.8147e-06C32.755 3.8147e-06 33.459 0.39467 33.971 1.184C34.483 1.97334 34.739 2.96534 34.739 4.16C34.739 7.46667 33.3523 10.3467 30.579 12.8H34.163C34.5043 12.8 34.7497 12.8747 34.899 13.024C35.0483 13.1733 35.123 13.4507 35.123 13.856C35.123 15.328 33.9177 16.064 31.507 16.064H27.603C27.5603 17.1307 27.539 17.9627 27.539 18.56C27.539 20.7787 27.795 22.336 28.307 23.232C28.8403 24.128 29.6723 24.576 30.803 24.576C31.7203 24.576 32.531 24.2987 33.235 23.744C33.939 23.1893 34.771 22.3573 35.731 21.248C35.987 20.9493 36.275 20.8 36.595 20.8ZM30.995 3.072C30.675 3.072 30.3123 3.47734 29.907 4.288C29.523 5.07734 29.1497 6.18667 28.787 7.616C28.4457 9.024 28.1577 10.592 27.923 12.32C29.1817 11.232 30.1203 10.016 30.739 8.672C31.379 7.30667 31.699 6.06934 31.699 4.96C31.699 3.70134 31.4643 3.072 30.995 3.072ZM49.1575 20.8C49.4348 20.8 49.6482 20.928 49.7975 21.184C49.9682 21.44 50.0535 21.792 50.0535 22.24C50.0535 23.0933 49.8508 23.7547 49.4455 24.224C48.6562 25.184 47.5362 26.0693 46.0855 26.88C44.6562 27.6907 43.1202 28.096 41.4775 28.096C39.2375 28.096 37.4988 27.488 36.2615 26.272C35.0242 25.056 34.4055 23.392 34.4055 21.28C34.4055 19.808 34.7148 18.4427 35.3335 17.184C35.9522 15.904 36.8055 14.8907 37.8935 14.144C39.0028 13.3973 40.2508 13.024 41.6375 13.024C42.8748 13.024 43.8668 13.3973 44.6135 14.144C45.3602 14.8693 45.7335 15.8613 45.7335 17.12C45.7335 18.592 45.2002 19.8613 44.1335 20.928C43.0882 21.9733 41.3068 22.8053 38.7895 23.424C39.3228 24.4053 40.3362 24.896 41.8295 24.896C42.7895 24.896 43.8775 24.5653 45.0935 23.904C46.3308 23.2213 47.3975 22.336 48.2935 21.248C48.5495 20.9493 48.8375 20.8 49.1575 20.8ZM41.0935 16.16C40.3042 16.16 39.6322 16.6187 39.0775 17.536C38.5442 18.4533 38.2775 19.5627 38.2775 20.864V20.928C39.5362 20.6293 40.5282 20.1813 41.2535 19.584C41.9788 18.9867 42.3415 18.2933 42.3415 17.504C42.3415 17.0987 42.2242 16.7787 41.9895 16.544C41.7762 16.288 41.4775 16.16 41.0935 16.16ZM65.161 20.8C65.4383 20.8 65.6517 20.928 65.801 21.184C65.9717 21.44 66.057 21.792 66.057 22.24C66.057 23.0933 65.8543 23.7547 65.449 24.224C64.5317 25.3547 63.5397 26.2827 62.473 27.008C61.4277 27.7333 60.233 28.096 58.889 28.096C57.7583 28.096 56.841 27.6907 56.137 26.88C54.921 27.6693 53.6517 28.0747 52.329 28.096C52.0517 32.2133 51.4223 35.648 50.441 38.4C49.4597 41.1733 48.0197 42.56 46.121 42.56C44.969 42.56 44.1157 42.144 43.561 41.312C43.0063 40.48 42.729 39.328 42.729 37.856C42.729 35.7653 43.209 33.3227 44.169 30.528C45.129 27.7547 46.6117 24.6933 48.617 21.344C48.617 18.2293 48.5957 16.064 48.553 14.848C48.5317 14.2293 48.777 13.7387 49.289 13.376C49.801 13.0133 50.441 12.832 51.209 12.832C51.657 12.832 51.977 12.928 52.169 13.12C52.3823 13.2907 52.4997 13.6427 52.521 14.176C52.521 14.7093 52.5317 15.104 52.553 15.36C53.2357 14.5067 53.9077 13.8987 54.569 13.536C55.2303 13.152 55.9343 12.96 56.681 12.96C57.8757 12.96 58.8463 13.44 59.593 14.4C60.361 15.36 60.745 16.6187 60.745 18.176C60.745 19.3067 60.5637 20.4053 60.201 21.472C59.8383 22.5387 59.337 23.5093 58.697 24.384C59.145 24.512 59.5183 24.576 59.817 24.576C60.521 24.576 61.193 24.32 61.833 23.808C62.473 23.296 63.2943 22.4427 64.297 21.248C64.553 20.9493 64.841 20.8 65.161 20.8ZM52.489 25.024C53.257 24.8533 53.961 24.4373 54.601 23.776C55.2623 23.0933 55.785 22.2613 56.169 21.28C56.553 20.2773 56.745 19.232 56.745 18.144C56.745 17.504 56.617 17.024 56.361 16.704C56.105 16.3627 55.7637 16.192 55.337 16.192C54.569 16.192 53.641 17.0027 52.553 18.624C52.5317 19.5627 52.521 20.9387 52.521 22.752C52.521 23.7333 52.5103 24.4907 52.489 25.024ZM46.377 39.424C46.953 39.424 47.433 38.1653 47.817 35.648C48.201 33.152 48.4463 30.0373 48.553 26.304C47.6357 28.4373 46.9103 30.4747 46.377 32.416C45.8437 34.3573 45.577 35.9893 45.577 37.312C45.577 37.9947 45.6623 38.5173 45.833 38.88C45.9823 39.2427 46.1637 39.424 46.377 39.424ZM87.6638 18.208C87.7278 18.1867 87.8344 18.176 87.9838 18.176C88.3038 18.176 88.5491 18.2827 88.7198 18.496C88.8904 18.7093 88.9758 18.9973 88.9758 19.36C88.9758 20.0213 88.8478 20.544 88.5918 20.928C88.3358 21.2907 87.9518 21.5573 87.4398 21.728C86.4584 22.048 85.4131 22.208 84.3038 22.208C83.3651 22.208 82.4798 22.08 81.6478 21.824C81.0291 22.8267 80.3464 23.8613 79.5998 24.928C78.7464 26.144 78.0104 26.976 77.3918 27.424C76.7944 27.872 76.1118 28.096 75.3438 28.096C74.4904 28.096 73.8398 27.7653 73.3918 27.104C72.9651 26.4427 72.6984 25.3547 72.5918 23.84L72.4318 21.504C71.7704 23.296 71.1731 24.6613 70.6398 25.6C70.1278 26.5387 69.6051 27.1893 69.0718 27.552C68.5598 27.9147 67.9518 28.096 67.2478 28.096C66.3731 28.096 65.6798 27.7547 65.1678 27.072C64.6771 26.3893 64.3678 25.312 64.2398 23.84C63.9838 20.8533 63.8558 18.24 63.8558 16V14.88C63.8771 14.176 64.0691 13.6853 64.4318 13.408C64.7944 13.1307 65.3384 12.992 66.0638 12.992C66.6184 12.992 67.0238 13.12 67.2798 13.376C67.5571 13.6107 67.6958 14.016 67.6958 14.592C67.6958 17.0453 67.8451 20.2347 68.1438 24.16C69.5944 21.1093 70.9278 17.9307 72.1438 14.624C72.3784 13.984 72.6558 13.5573 72.9758 13.344C73.3171 13.1093 73.7224 12.992 74.1918 12.992C74.7678 12.992 75.1624 13.1093 75.3758 13.344C75.6104 13.5787 75.7278 13.9947 75.7278 14.592C75.7278 17.0453 75.8771 20.2347 76.1758 24.16C77.4558 22.2613 78.4158 20.7467 79.0558 19.616C78.7358 18.9973 78.5758 18.2613 78.5758 17.408C78.5758 16.6827 78.7358 15.9787 79.0558 15.296C79.3758 14.6133 79.8131 14.0587 80.3678 13.632C80.9224 13.2053 81.5518 12.992 82.2558 12.992C82.8744 12.992 83.3758 13.216 83.7598 13.664C84.1438 14.0907 84.3358 14.72 84.3358 15.552C84.3358 16.512 84.0798 17.6107 83.5678 18.848C84.3784 18.8053 85.4558 18.6453 86.7998 18.368L87.6638 18.208ZM90.39 10.912C89.494 10.912 88.822 10.7093 88.374 10.304C87.926 9.87734 87.702 9.29067 87.702 8.544C87.702 7.79734 87.99 7.17867 88.566 6.688C89.1633 6.176 89.8993 5.92 90.774 5.92C91.5633 5.92 92.2033 6.112 92.694 6.496C93.1847 6.88 93.43 7.424 93.43 8.128C93.43 8.98134 93.1527 9.664 92.598 10.176C92.0433 10.6667 91.3073 10.912 90.39 10.912ZM90.134 28.096C88.7473 28.096 87.734 27.6053 87.094 26.624C86.4753 25.6427 86.166 24.3413 86.166 22.72C86.166 21.76 86.2833 20.5333 86.518 19.04C86.774 17.5253 87.094 16.1173 87.478 14.816C87.67 14.1333 87.926 13.664 88.246 13.408C88.566 13.152 89.078 13.024 89.782 13.024C90.87 13.024 91.414 13.3867 91.414 14.112C91.414 14.6453 91.2113 15.8827 90.806 17.824C90.294 20.1707 90.038 21.76 90.038 22.592C90.038 23.232 90.1233 23.7227 90.294 24.064C90.4647 24.4053 90.7527 24.576 91.158 24.576C91.542 24.576 92.022 24.3093 92.598 23.776C93.174 23.2427 93.942 22.4 94.902 21.248C95.158 20.9493 95.446 20.8 95.766 20.8C96.0433 20.8 96.2567 20.928 96.406 21.184C96.5767 21.44 96.662 21.792 96.662 22.24C96.662 23.0933 96.4593 23.7547 96.054 24.224C93.942 26.8053 91.9687 28.096 90.134 28.096ZM100.025 28.8C98.9157 28.8 98.0623 28.544 97.465 28.032C96.889 27.52 96.601 26.944 96.601 26.304C96.601 25.7493 96.8037 25.2693 97.209 24.864C97.6143 24.4587 98.2117 24.256 99.001 24.256C99.2783 24.256 99.5983 24.288 99.961 24.352C100.345 24.3947 100.633 24.4267 100.825 24.448C100.804 23.8933 100.676 23.3707 100.441 22.88C100.228 22.3893 99.9503 21.92 99.609 21.472C99.2677 21.0027 98.9477 20.5973 98.649 20.256C97.9877 21.5147 97.3263 22.56 96.665 23.392C96.025 24.224 95.321 25.0133 94.553 25.76C94.169 26.144 93.7637 26.336 93.337 26.336C92.9957 26.336 92.7183 26.2187 92.505 25.984C92.2917 25.728 92.185 25.4187 92.185 25.056C92.185 24.6293 92.3343 24.2347 92.633 23.872L93.049 23.36C94.2223 21.9093 95.1077 20.7147 95.705 19.776C96.0677 19.1573 96.4943 18.336 96.985 17.312C97.4757 16.2667 97.9557 15.1893 98.425 14.08C98.8303 13.1413 99.673 12.672 100.953 12.672C101.55 12.672 101.966 12.7253 102.201 12.832C102.436 12.9387 102.553 13.1093 102.553 13.344C102.553 13.472 102.51 13.6747 102.425 13.952C102.34 14.2293 102.222 14.5067 102.073 14.784C101.689 15.552 101.497 16.2027 101.497 16.736C101.497 17.056 101.604 17.408 101.817 17.792C102.052 18.176 102.404 18.656 102.873 19.232C103.556 20.128 104.068 20.896 104.409 21.536C104.772 22.1547 104.953 22.8373 104.953 23.584C104.953 23.7973 104.932 24.096 104.889 24.48C105.934 24.0747 107.161 22.9973 108.569 21.248C108.825 20.9493 109.113 20.8 109.433 20.8C109.71 20.8 109.924 20.928 110.073 21.184C110.244 21.44 110.329 21.792 110.329 22.24C110.329 23.0507 110.126 23.712 109.721 24.224C108.654 25.5467 107.63 26.4533 106.649 26.944C105.689 27.4133 104.494 27.6693 103.065 27.712C102.212 28.4373 101.198 28.8 100.025 28.8ZM119.185 21.76C119.463 21.76 119.676 21.888 119.825 22.144C119.996 22.4 120.081 22.752 120.081 23.2C120.081 23.968 119.9 24.6293 119.537 25.184C118.94 26.1013 118.151 26.816 117.169 27.328C116.209 27.84 115.057 28.096 113.713 28.096C111.665 28.096 110.076 27.488 108.945 26.272C107.815 25.0347 107.249 23.3707 107.249 21.28C107.249 19.808 107.559 18.4427 108.177 17.184C108.796 15.904 109.649 14.8907 110.737 14.144C111.847 13.3973 113.095 13.024 114.481 13.024C115.719 13.024 116.711 13.3973 117.457 14.144C118.204 14.8693 118.577 15.8613 118.577 17.12C118.577 18.592 118.044 19.8613 116.977 20.928C115.932 21.9733 114.14 22.8053 111.601 23.424C112.113 24.4053 112.977 24.896 114.193 24.896C115.068 24.896 115.783 24.6933 116.337 24.288C116.913 23.8827 117.575 23.2 118.321 22.24C118.577 21.92 118.865 21.76 119.185 21.76ZM113.937 16.16C113.148 16.16 112.476 16.6187 111.921 17.536C111.388 18.4533 111.121 19.5627 111.121 20.864V20.928C112.38 20.6293 113.372 20.1813 114.097 19.584C114.823 18.9867 115.185 18.2933 115.185 17.504C115.185 17.0987 115.068 16.7787 114.833 16.544C114.62 16.288 114.321 16.16 113.937 16.16Z" fill="black"/>
</svg>
